PathFileType	4	(X/Y/Z)	pose_F01_0-76.trc
DataRate	CameraRate	NumFrames	NumMarkers	Units	OrigDataRate	OrigDataStartFrame	OrigNumFrames
30	30	8	21	m	30	0	76
Frame#	Time	CHip			RHip			RKnee			RAnkle			RBigToe			RSmallToe			RHeel			LHip			LKnee			LAnkle			LBigToe			LSmallToe			LHeel			Neck			Nose			RShoulder			RElbow			RWrist			LShoulder			LElbow			LWrist			
		X1	Y1	Z1	X2	Y2	Z2	X3	Y3	Z3	X4	Y4	Z4	X5	Y5	Z5	X6	Y6	Z6	X7	Y7	Z7	X8	Y8	Z8	X9	Y9	Z9	X10	Y10	Z10	X11	Y11	Z11	X12	Y12	Z12	X13	Y13	Z13	X14	Y14	Z14	X15	Y15	Z15	X16	Y16	Z16	X17	Y17	Z17	X18	Y18	Z18	X19	Y19	Z19	X20	Y20	Z20	X21	Y21	Z21	
0	0.0	-0.22962496380897712	1.8313651765888628	-0.49550338202722843	-0.24458406541932798	1.826283209552255	-0.423955084698842																-0.21843736442444334	1.8282909432875742	-0.5595000929893705	-0.22869954379954427	1.7042461941457363	-0.5425524351876059	-0.21235995440062397	1.5849564849996642	-0.5420203415728656	-0.20963550898847963	1.569469083607336	-0.5695661759048938	-0.22553090882175417	1.5427500402390566	-0.5764721774662961	-0.20643996608436807	1.5776142398558972	-0.5391330792027345	-0.21619280357317214	1.9851460183547212	-0.5284577694249939	-0.23672660662571518	2.042659070117432	-0.5387197759116983	-0.23620467694792094	1.9863648398423153	-0.43023942166178497	-0.26639487167455506	1.9377906679510508	-0.44543769185076326	-0.24231381576191724	2.0053192634800867	-0.48758164674163623	-0.19964051881996325	1.9859635551926096	-0.6132303895930337	-0.17977479262735993	1.9254530064885629	-0.6894484704099512	-0.20248602680384825	1.923222983235439	-0.6170348263268907
1	0.03333333333333333	-0.23051424720023295	1.8316452483684238	-0.4987579832356521	-0.24088559621596103	1.8283437398145217	-0.4285837602612641																-0.21852927100599095	1.8298253375169762	-0.5596248943085089	-0.22593948259781668	1.7030249281862544	-0.5431046190072497	-0.21235995440062397	1.5849564849996642	-0.5420203415728656	-0.20963550898847963	1.569469083607336	-0.5695661759048938	-0.22571036875103467	1.5433865641869007	-0.5763551085513997	-0.2052734000359829	1.5758120821911468	-0.5399579791539386	-0.21705576297175824	1.9849892666462903	-0.5317767375388486	-0.2358190015311925	2.042600156643586	-0.535691860973201	-0.23433404797743965	1.9851867868167106	-0.4404879266574069	-0.26319259823679186	1.936629434383363	-0.43584393546966504	-0.24284581523444487	2.0014239999670007	-0.4880070192888157	-0.19844021402296336	1.9861021384980169	-0.6186561344832257	-0.18217930951480765	1.9222588016381588	-0.6869680653186703	-0.2193010973560517	1.91083901122203	-0.5974055668008532
2	0.06666666666666667	-0.23140353059148877	1.8319253201479848	-0.5020125844440758	-0.2371871270125941	1.8304042700767884	-0.4332124358236862																-0.21862117758753857	1.8313597317463781	-0.5597496956276473	-0.2231794213960891	1.7018036622267725	-0.5436568028268935	-0.21235995440062397	1.5849564849996642	-0.5420203415728656	-0.20963550898847963	1.569469083607336	-0.5695661759048938	-0.22588982868031518	1.5440230881347448	-0.5762380396365033	-0.20410683398759774	1.5740099245263965	-0.5407828791051427	-0.21791872237034435	1.9848325149378594	-0.5350957056527033	-0.23491139643666983	2.04254124316974	-0.5326639460347037	-0.23246341900695836	1.9840087337911059	-0.4507364316530288	-0.25999032479902867	1.9354682008156752	-0.4262501790885668	-0.2433778147069725	1.9975287364539145	-0.48843239183599513	-0.19723990922596346	1.9862407218034241	-0.6240818793734176	-0.18458382640225537	1.9190645967877547	-0.6844876602273894	-0.23611616790825513	1.8984550392086208	-0.5777763072748158
3	0.1	-0.22738847606781787	1.8309661461829603	-0.5065669485791474	-0.236087235023796	1.8300622526498207	-0.43884691863213693																-0.21456238301261676	1.8296732963208466	-0.564189769832929	-0.22041936019436148	1.7005823962672904	-0.5442089866465375	-0.21235995440062397	1.5849564849996642	-0.5420203415728656	-0.20963550898847963	1.569469083607336	-0.5695661759048938	-0.2260692886095957	1.5446596120825888	-0.576120970721607	-0.20294026793921258	1.5722077668616463	-0.5416077790563467	-0.21482271007592102	1.984676205665744	-0.5427239490669469	-0.2349420749950603	2.042219122130141	-0.5325911861143233	-1.8498288819420012	1.8945156734009512	1.3570712231394038	-0.25524276389734657	1.9362856658796754	-0.4359666389837502	-0.2441684031672468	1.9955334139526784	-0.49080375129020454	-0.19604959663191826	1.9874296383965138	-0.6297705482585623	-0.18536585239795617	1.921212781472194	-0.6881008241253346	-0.23580359632520614	1.8836389983471684	-0.6101281947677494
4	0.13333333333333333	-0.22417837194310242	1.8309131607267255	-0.5143886092978008	-0.233265361363283	1.8323883445955762	-0.4467260389158284																-0.21111915311997906	1.8320220545330712	-0.5721713187018643	-0.2127369612489345	1.7057991282227354	-0.55730436311796	-0.21235995440062397	1.5849564849996642	-0.5420203415728656	-0.20963550898847963	1.569469083607336	-0.5695661759048938	-0.2262487485388762	1.545296136030433	-0.5760039018067106	-0.2017737018908274	1.5704056091968959	-0.5424326790075509	-0.21077913720251457	1.9847083027560821	-0.5473163723467036	-0.23484926663000033	2.0424080526578847	-0.5325892744534105	-1.8490135574940862	1.894653988790536	1.3559895555021586	-0.25218057217731354	1.9341919389716677	-0.4429401025440442	-0.24489224339108534	1.9956347551188867	-0.5016158518474432	-0.1937939621431856	1.9888786644049945	-0.6322801131823008	-0.1862164098435068	1.922115168457181	-0.691130918366485	-0.2193107747595327	1.8636067472002222	-0.6255785678236262
5	0.16666666666666666	-0.22065236761040477	1.834157657413655	-0.5225826880890709	-0.23199046899518885	1.8355377524521954	-0.46144950534178314																-0.20856355181593195	1.8358917883453878	-0.5835872325641519	-0.21172196824472267	1.707526482577682	-0.5585948775508212	-0.21235995440062397	1.5849564849996642	-0.5420203415728656	-0.20963550898847963	1.569469083607336	-0.5695661759048938	-0.2264282084681567	1.545932659978277	-0.5758868328918142	-0.20136619930302346	1.5708534677486212	-0.5428862927770691	-0.21163213722828128	1.9846523762534436	-0.5506033479490209	-0.22984627356050472	2.0450142829532045	-0.5342193248575484	-0.22434997742505067	1.9838413976243876	-0.467920524382378	-0.2503489301253812	1.9329868979225948	-0.43670335936872834	-0.2506671345629911	1.9982993969185057	-0.4869065191130511	-0.19343808288803396	1.9896879571241757	-0.6407200931668481	-0.1894730157735167	1.9200278398353823	-0.6915154113357416	-0.21003894148691052	1.84570315039519	-0.6383201733900999
6	0.2	-0.21996526473200093	1.8387725314779617	-0.5284331759195692	-0.23127587522614282	1.8386119499077924	-0.4674133983037127																-0.21248249316641274	1.8392560229689525	-0.5967921420899092	-0.21070697524051085	1.7092538369326282	-0.5598853919836824	-0.21025945926743472	1.5846621161057561	-0.54423639410081	-0.20963550898847963	1.569469083607336	-0.5695661759048938	-0.2266076683974372	1.546569183926121	-0.5757697639769178	-0.2014180216658522	1.571220562215252	-0.542984726472302	-0.20959195569389294	1.9851081626875096	-0.5529338043203732	-0.22450858840081975	2.047887157275489	-0.5438637281443913	-1.8477806619333277	1.8946080808612265	1.3544636971896373	-0.24807529447866605	1.927390228233553	-0.4291148559199101	-0.2545265374924064	1.9962422052257407	-0.46487426111727076	-0.1929962038213098	1.9904656359815744	-0.6492428439427766	-0.1910544374819778	1.9131720551566938	-0.685480558502341	-0.20546484724706177	1.835673093534564	-0.6588138334821213
7	0.23333333333333334	-0.22002931541306647	1.8383471933076618	-0.5284391419637984	-0.23434261098413492	1.83627540140483	-0.46820589332067214																-0.21250680319721688	1.8387657460140516	-0.5967713576467811	-0.21067369275161085	1.7093235997768605	-0.5599513026898698	-0.21025945926743472	1.5846621161057561	-0.54423639410081	-0.20963550898847963	1.569469083607336	-0.5695661759048938	-0.2265833252866387	1.5463363938289483	-0.5757714226850955	-0.20244067886106695	1.5689565018337441	-0.5455952491667635	-0.2085261589241248	1.9852915788448537	-0.558069273632306	-0.2238719011567762	2.053064563516012	-0.5700062347267006	-0.2224014483913918	1.9845638636185803	-0.4701427161354995	-0.2448887486096472	1.9242607494906274	-0.4267729567355908	-0.26068543517855336	1.991249992519059	-0.4409886141605058	-0.19387899789443339	1.9879136872127219	-0.6520658054030606	-0.18957728946900795	1.9097509520998115	-0.6785574330702124	-0.20209760253878548	1.8289356910806698	-0.6746021273286109
